<?xml version="1.0" encoding="utf-8"?>
<!-- Generator: Adobe Illustrator 17.0.0, SVG Export Plug-In . SVG Version: 6.00 Build 0)  -->
<!DOCTYPE svg PUBLIC "-//W3C//DTD SVG 1.1//EN" "http://www.w3.org/Graphics/SVG/1.1/DTD/svg11.dtd">
<svg version="1.1" id="Layer_1" xmlns="http://www.w3.org/2000/svg" xmlns:xlink="http://www.w3.org/1999/xlink" x="0px" y="0px"
	 width="201.02px" height="114.011px" viewBox="0 0 201.02 114.011" enable-background="new 0 0 201.02 114.011"
	 xml:space="preserve">
<g>
	<g>
		<path fill="#020202" d="M102.089,22.67c26.231,13.033,52.462,26.066,78.693,39.099c0-3.166,0-6.332,0-9.498
			c-26.231,13.198-52.462,26.395-78.693,39.594c2.508,0.658,5.017,1.315,7.525,1.973C96.416,67.607,83.218,41.376,70.02,15.145
			c-1.799-3.575-7.708-3.604-9.498,0C47.489,41.376,34.456,67.607,21.423,93.838c-3.145,6.331,6.342,11.905,9.498,5.552
			C43.954,73.158,56.987,46.927,70.02,20.697c-3.166,0-6.332,0-9.498,0c13.198,26.231,26.396,52.462,39.594,78.693
			c1.407,2.797,4.982,3.253,7.525,1.973c26.231-13.199,52.462-26.396,78.693-39.594c3.575-1.799,3.604-7.708,0-9.498
			c-26.231-13.033-52.462-26.066-78.693-39.099C101.31,10.026,95.736,19.513,102.089,22.67L102.089,22.67z"/>
	</g>
</g>
</svg>
