<?xml version="1.0" encoding="utf-8"?>
<!-- Generator: Adobe Illustrator 17.0.0, SVG Export Plug-In . SVG Version: 6.00 Build 0)  -->
<!DOCTYPE svg PUBLIC "-//W3C//DTD SVG 1.1//EN" "http://www.w3.org/Graphics/SVG/1.1/DTD/svg11.dtd">
<svg version="1.1" id="Layer_1" xmlns="http://www.w3.org/2000/svg" xmlns:xlink="http://www.w3.org/1999/xlink" x="0px" y="0px"
	 width="2412px" height="2412px" viewBox="411.422 0.354 2412 2412" enable-background="new 411.422 0.354 2412 2412"
	 xml:space="preserve">
<g>
	<path d="M2692.735,1890.385c63.75,0,115.312-51.562,115.312-115.312v-153.75c0-63.75-51.562-115.312-115.312-115.312h-38.438
		v-38.438h-460.781v460.781h-471.562l-51.094-153.75h369.375V929.917H810.704v845.156h369.375l-51.094,153.75H426.797v76.875
		h383.906v383.906h76.875v-383.906h215.625h644.063h446.25h153.75v383.906h76.875v-383.906h230.625h153.281v-76.875h-153.75v-38.438
		H2692.735z M887.579,1698.198v-691.406h1075.312v691.406h-317.812H1205.86H887.579z M1209.61,1928.823l51.094-153.75h328.594
		l51.094,153.75H1209.61z M2692.735,1582.885c21.094,0,38.438,17.344,38.438,38.438v153.75c0,21.094-17.344,38.438-38.438,38.438
		h-38.438v-230.625H2692.735z M2577.422,1928.823h-307.031v-383.906h307.031v345.469V1928.823z"/>
	<path d="M1851.797,622.885c17.812,87.656,95.625,153.75,187.969,153.75c92.344,0,170.156-66.094,187.969-153.75h80.625h38.438
		V546.01h-41.25c-16.875-117.656-109.688-210.469-227.344-227.344V8.354h-76.875v310.312
		c-117.656,16.875-210.469,109.688-227.344,227.344h-41.25v76.875h38.438L1851.797,622.885L1851.797,622.885z M2039.766,699.76
		c-50.156,0-92.812-31.875-108.75-76.875h217.5C2132.579,667.417,2089.922,699.76,2039.766,699.76z M2039.766,392.26
		c92.812,0,170.156,66.094,187.969,153.75h-375.938C1869.61,458.354,1946.954,392.26,2039.766,392.26z"/>
	<path d="M1271.954,1083.667H964.922v307.5h153.75v153.75h306.562v-307.031h-153.75v-154.219H1271.954z M1041.329,1314.292v-153.75
		h153.75v76.875h-76.875v76.875H1041.329z M1348.36,1314.292v153.75h-153.75v-76.875v-76.875h76.875H1348.36z"/>
	<rect x="1809.61" y="1468.042" width="76.875" height="76.875"/>
	<rect x="1655.86" y="1468.042" width="76.875" height="76.875"/>
	<rect x="1502.11" y="1468.042" width="76.875" height="76.875"/>
	<rect x="2308.829" y="1237.417" width="76.875" height="153.75"/>
	<rect x="2462.579" y="1160.542" width="76.875" height="153.75"/>
</g>
</svg>
