<?xml version="1.0" encoding="utf-8"?>
<!-- Generator: Adobe Illustrator 17.0.0, SVG Export Plug-In . SVG Version: 6.00 Build 0)  -->
<!DOCTYPE svg PUBLIC "-//W3C//DTD SVG 1.1//EN" "http://www.w3.org/Graphics/SVG/1.1/DTD/svg11.dtd">
<svg version="1.1" id="Layer_1" xmlns="http://www.w3.org/2000/svg" xmlns:xlink="http://www.w3.org/1999/xlink" x="0px" y="0px"
	 width="2412px" height="2412px" viewBox="411.422 0.354 2412 2412" enable-background="new 411.422 0.354 2412 2412"
	 xml:space="preserve">
<g>
	<g>
		<path d="M497.422,1731.354h187.5v37.5c0,15.15,9.15,28.875,23.137,34.65c13.988,5.775,30.113,2.588,40.875-8.137l85.988-85.987
			l85.987,85.987c7.162,7.162,16.762,10.987,26.513,10.987c4.837,0,9.712-0.938,14.362-2.85c13.987-5.775,23.138-19.5,23.138-34.65
			v-37.5h337.5v75h75v-825h-975v825h75V1731.354z M497.422,1656.354v-150h187.5v150H497.422z M497.422,1431.354v-150h187.5v150
			H497.422z M861.435,1629.842c-14.662-14.662-38.362-14.662-53.025,0l-48.487,48.487v-621.975h150v621.975L861.435,1629.842z
			 M984.922,1281.354h337.5v150h-337.5V1281.354z M984.922,1656.354v-150h337.5v150H984.922z M1322.422,1206.354h-337.5v-150h337.5
			V1206.354z M684.922,1056.354v150h-187.5v-150H684.922z"/>
		<path d="M2709.922,1731.354h-172.95l125.363-376.012c3.337,0.225,6.637,1.012,10.087,1.012c82.688,0,150-67.312,150-150
			c0-82.688-67.312-150-150-150c-27.75,0-53.4,8.062-75.75,21.225l-299.25-299.25V43.854c0-20.737-16.762-37.5-37.5-37.5h-1800
			c-20.7,0-37.5,16.763-37.5,37.5v862.5h75v-675h825v300h75v-300h825v471.975l-85.988-85.987
			c-6.787-6.788-16.162-10.988-26.512-10.988h-750c-20.7,0-37.5,16.763-37.5,37.5v150c0,20.737,16.8,37.5,37.5,37.5h750
			c20.738,0,37.5-16.763,37.5-37.5v-59.475l75,75v396.975h-375v75h412.5c20.738,0,37.5-16.762,37.5-37.5V884.379l246.225,246.225
			c-13.163,22.35-21.225,48.038-21.225,75.75c0,52.65,27.375,98.888,68.587,125.663l-133.125,399.337h-85.462v75h262.5v75h-487.5
			v-75h75v-75h-150v150h-150v75h825v75h-2250v-75h900v-75h-975v225h150v300h75v-300h75v300h75v-300h1650v300h75v-300h75v300h75v-300
			h150v-225h-112.5V1731.354z M497.422,156.354v-75h1725v75H497.422z M2072.422,756.354h-675v-75h675V756.354z M2747.422,1206.354
			c0,41.363-33.6,75-75,75c-41.4,0-75-33.637-75-75c0-41.362,33.6-75,75-75C2713.823,1131.354,2747.422,1164.992,2747.422,1206.354z
			"/>
		<rect x="2259.922" y="1731.354" width="75" height="75"/>
		<path d="M1472.422,1956.354h375v-150h112.5c20.738,0,37.5-16.762,37.5-37.5v-300c0-20.738-16.762-37.5-37.5-37.5h-112.5v-75h-375
			V1956.354z M1922.422,1506.354v225h-75v-225H1922.422z M1547.422,1431.354h225v37.5v300v112.5h-225V1431.354z"/>
		<rect x="1547.422" y="1206.354" width="75" height="75"/>
		<rect x="1697.422" y="1206.354" width="75" height="75"/>
		<rect x="1547.422" y="1056.354" width="75" height="75"/>
		<rect x="1697.422" y="1056.354" width="75" height="75"/>
		<rect x="1547.422" y="906.354" width="75" height="75"/>
		<rect x="1697.422" y="906.354" width="75" height="75"/>
	</g>
</g>
</svg>
